Simulation
nRows=19
nColumns=15
endheader
time  TH_x TH_y TH_z SC_y  SC_z  SC_x  AC_y  AC_z  AC_x  GH_y  GH_z  GH_yy  EL_x  PS_y
2.6910411985018725  0.000000  0.000000  0.000000  -23.472515267393206  5.016312563620133  -3.957385518848014  56.33949696594226  9.644432400387121  6.147655441072682  -9.187592067667616  2.610153723477457  38.47330602537951  15.886228152418774  120.000000
2.7312059925093632  0.000000  0.000000  0.000000  -23.448908462268378  5.033991456219776  -3.828141109689551  56.90303981533461  10.046010515564204  6.511145584854733  -14.98109478865898  0.49125931178800936  46.70638691073666  16.640296254932586  120.000000
2.771370786516854  0.000000  0.000000  0.000000  -23.55977789516806  5.0856037736850235  -3.6667594143420614  57.3862318105544  10.40286058493638  6.8151329937612966  175.74005540867006  1.520844344892639  -141.77339248988045  17.311832234408133  120.000000
2.8115355805243447  0.000000  0.000000  0.000000  -23.7639985955947  5.163989802777905  -3.4989891145129515  57.78158868354984  10.708861848581652  7.058304772301892  175.49397028402325  3.412093640234014  -139.4826051108786  17.87193398413915  120.000000
2.851700374531835  0.000000  0.000000  0.000000  -24.024956179446633  5.262612064065387  -3.3380126101696717  58.08845093666677  10.966702923221746  7.243201246393298  176.55135992482644  5.182897441267485  -138.6838322888056  18.302691275058336  120.000000
2.8918651685393257  0.000000  0.000000  0.000000  -24.314477795495353  5.374804611260455  -3.186897085521355  58.31325621478349  11.184957937806391  7.377666459071047  178.0098921857972  6.823308997083835  -138.4662976207344  18.6001480387607  120.000000
2.9320299625468165  0.000000  0.000000  0.000000  -24.612245719637105  5.493059340352029  -3.0430303159671963  58.46445557531972  11.373791470621203  7.474710957544659  179.6384794377117  8.324739516824922  -138.59251417534372  18.771383850469103  120.000000
2.972194756554307  0.000000  0.000000  0.000000  -24.903419068373083  5.611862416014467  -2.9024989003750608  58.55063454075462  11.541615638775854  7.545743801172231  -178.66218786055285  9.681316469982328  -138.9578277023579  18.831299394060707  120.000000
3.012359550561798  0.000000  0.000000  0.000000  -25.178125601542177  5.73041152318051  -2.76449325487641  58.58146999973531  11.694180222339526  7.596210680570382  -176.95213068112216  10.89129337252375  -139.49625788757487  18.800421986343938  120.000000
3.0525243445692882  0.000000  0.000000  0.000000  -25.43013122151599  5.849497918970309  -2.631859714812782  58.566418329078175  11.833771962628438  7.629066373244944  -175.27837594551755  11.957151482497993  -140.1534336601555  18.702423413016334  120.000000
3.092689138576779  0.000000  0.000000  0.000000  -25.65512119632909  5.967900097380596  -2.5092065732077704  58.51327237489307  11.959699951322746  7.6474166347970955  -173.6754106751359  12.883723878363272  -140.88659506626175  18.56172648810053  120.000000
3.1328539325842697  0.000000  0.000000  0.000000  -25.850514124905875  6.083463549481578  -2.4013791538039  58.428744795567106  12.069389232221624  7.654575520677356  -172.17091527223232  13.676526898989179  -141.65916753616736  18.400137075522775  120.000000
3.1730187265917604  0.000000  0.000000  0.000000  -26.014709876289032  6.194167383577705  -2.3128323424436865  58.31930340186913  12.159639651001045  7.653519337622805  -170.78931816356055  14.340439893594292  -142.43771625927522  18.234951542986554  120.000000
3.2131835205992507  0.000000  0.000000  0.000000  -26.14650872553652  6.298309936524563  -2.2474087472776825  58.19135792257304  12.2276027293037  7.6467974702050645  -169.5524617771891  14.879084781306311  -143.1913147511922  18.0775473614452  120.000000
3.2533483146067415  0.000000  0.000000  0.000000  -26.245209013678362  6.394600426807102  -2.2082728979122233  58.05072147621351  12.270980726645371  7.636936879967281  -168.47820084494194  15.294837640568293  -143.89315189545724  17.933486800701882  120.000000
3.293513108614232  0.000000  0.000000  0.000000  -26.310341664031704  6.4819226659787805  -2.197999488524532  57.902775133905045  12.288112563366703  7.62621917139303  -167.58038989002952  15.588894925912014  -144.5207252960008  17.80371729511823  120.000000
3.333677902621723  0.000000  0.000000  0.000000  -26.3417265020386  6.55939511823632  -2.2184853400140305  57.75225059284937  12.277764598571883  7.6167330309495185  -166.86839874014234  15.761540047575284  -145.0564035970594  17.68636629101103  120.000000
3.3738426966292137  0.000000  0.000000  0.000000  -26.339777997356194  6.626308813070662  -2.2709557786517154  57.603047188248254  12.239105122161858  7.610272361425226  -166.34725312493828  15.812376950723092  -145.48742006204088  17.57848460490837  120.000000
3.414007490636704  0.000000  0.000000  0.000000  -26.305444891154124  6.68214695616191  -2.355969825900544  57.45807696190397  12.171729506344345  7.608292825059065  -166.01745835568997  15.740510557017021  -145.80609002896574  17.477398971751178  120.000000
